# xmcd
#
# Track frame offsets: 
#        150
#        16807
#        28402
#        42757
#        56953
#        71455
#        86360
#        102734
#        112225
#        124461
#        132748
#        144976
#        159038
#        171289
#        178323
#        193535
#        209963
#        220680
#        238302
#        250549
#
# Disc length: 3499 seconds
#
# Revision: 1
# Processed by: cddbd v1.5.2PL0 Copyright (c) Steve Scherf et al.
# Submitted via: ExactAudioCopy v0.99pb4
#
DISCID=370da914
DTITLE=Palast Orchester mit seinem Sänger Max Raabe - Das Beste vom Pa
DTITLE=last Orchester mit seinem Sänger Max Raabe - Premium Tour Editi
DTITLE=on
DYEAR=2009
DGENRE=Swing
TTITLE0=Kein Schwein ruft mich an
TTITLE1=Mein kleiner grüner Kaktus
TTITLE2=Veronika, der Lenz ist da
TTITLE3=Roter Mohn
TTITLE4=Oh, Donna Clara
TTITLE5=Schöner Gigolo, armer Gigolo
TTITLE6=Capri Fischer
TTITLE7=Es war einmal ein Musikus
TTITLE8=Fräulein, Pardon
TTITLE9=In einer kleinen Konditorei
TTITLE10=Wenn der weisse Flieder wieder blüht
TTITLE11=Junger Mann im Frühling
TTITLE12=Was macht der Maier auf derm Himalaya
TTITLE13=Ich wollt, ich wär ein Huhn
TTITLE14=Carmen, hab erbarmen
TTITLE15=Ich brech' die Herzen der stolzesten Frau'n
TTITLE16=Was will der Mann da, auf der Veranda?
TTITLE17=Dort tanzt LuLu! A-Ha-Ha! U-Hu-Hu!
TTITLE18=Klonen kann sich lohnen
TTITLE19=Wochenende und Sonnenschein (Happy Days Are Here Again)
EXTD=
EXTT0=
EXTT1=
EXTT2=
EXTT3=
EXTT4=
EXTT5=
EXTT6=
EXTT7=
EXTT8=
EXTT9=
EXTT10=
EXTT11=
EXTT12=
EXTT13=
EXTT14=
EXTT15=
EXTT16=
EXTT17=
EXTT18=
EXTT19=
PLAYORDER=
